<svg width="32" height="32" viewBox="0 0 32 32" fill="none" xmlns="http://www.w3.org/2000/svg">
<path d="M9.75 19.75C9.75 20.612 9.40759 21.4386 8.7981 22.0481C8.1886 22.6576 7.36195 23 6.5 23C5.63805 23 4.8114 22.6576 4.2019 22.0481C3.59241 21.4386 3.25 20.612 3.25 19.75C3.25 18.888 3.59241 18.0614 4.2019 17.4519C4.8114 16.8424 5.63805 16.5 6.5 16.5C7.36195 16.5 8.1886 16.8424 8.7981 17.4519C9.40759 18.0614 9.75 18.888 9.75 19.75ZM28.75 19.75C28.75 20.612 28.4076 21.4386 27.7981 22.0481C27.1886 22.6576 26.362 23 25.5 23C24.638 23 23.8114 22.6576 23.2019 22.0481C22.5924 21.4386 22.25 20.612 22.25 19.75C22.25 18.888 22.5924 18.0614 23.2019 17.4519C23.8114 16.8424 24.638 16.5 25.5 16.5C26.362 16.5 27.1886 16.8424 27.7981 17.4519C28.4076 18.0614 28.75 18.888 28.75 19.75Z" fill="#F4C6AD"/>
<path d="M23.21 5.79C21.6807 4.63525 19.8183 4.00721 17.902 4H14.096C12.198 4 10.341 4.63 8.79002 5.79C6.14702 7.78 4.71802 11.09 5.04502 14.481L5.94302 22.591C6.23902 25.732 8.32002 28.372 11.208 29.272C14.331 30.242 17.668 30.242 20.79 29.272C23.677 28.372 25.76 25.732 26.055 22.592L26.953 14.481C27.279 11.091 25.851 7.781 23.208 5.791" fill="#FFD7C2"/>
<path d="M15.992 23.9629C14.9448 23.9678 13.9124 23.7162 12.985 23.2299C12.686 23.0699 12.368 23.4109 12.557 23.7019C12.9267 24.2803 13.4361 24.7562 14.0381 25.086C14.6402 25.4158 15.3155 25.5887 16.002 25.5889C16.6882 25.5874 17.3631 25.414 17.9649 25.0843C18.5667 24.7547 19.0763 24.2794 19.447 23.7019C19.627 23.4219 19.317 23.0799 19.019 23.2299C18.0836 23.714 17.0452 23.9654 15.992 23.9629Z" fill="#990839"/>
<path d="M16.002 22.65C16.485 22.65 16.916 22.405 17.162 22.037C17.2136 21.961 17.2434 21.8724 17.2483 21.7807C17.2531 21.689 17.2329 21.5977 17.1896 21.5167C17.1464 21.4357 17.0818 21.368 17.003 21.321C16.9241 21.274 16.8338 21.2495 16.742 21.25H15.263C14.853 21.25 14.606 21.71 14.842 22.037C15.088 22.415 15.52 22.65 16.002 22.65Z" fill="#E5AF93"/>
<path d="M7.36999 19.648C7.73999 18.126 9.09999 17 10.71 17C12.38 17 13.78 18.217 14.09 19.82C14.16 20.175 13.88 20.5 13.53 20.5H8.02999C7.92606 20.4997 7.82355 20.4757 7.73029 20.4299C7.63702 20.384 7.55546 20.3174 7.49181 20.2353C7.42816 20.1531 7.3841 20.0575 7.36299 19.9557C7.34188 19.854 7.34428 19.7487 7.36999 19.648ZM24.05 19.648C23.68 18.126 22.32 17 20.71 17C19.03 17 17.64 18.217 17.33 19.82C17.26 20.175 17.54 20.5 17.89 20.5H23.39C23.83 20.5 24.16 20.084 24.05 19.648Z" fill="white"/>
<path d="M9.02002 19.92C9.02002 18.71 10 17.72 11.22 17.72C12.44 17.72 13.42 18.71 13.43 19.92C13.43 20.12 13.4 20.31 13.35 20.5H9.10002C9.05002 20.32 9.02002 20.12 9.02002 19.92ZM22.4 19.92C22.4 19.3365 22.1682 18.7769 21.7557 18.3643C21.3431 17.9518 20.7835 17.72 20.2 17.72C18.98 17.72 17.99 18.71 17.99 19.92C17.99 20.12 18.02 20.31 18.07 20.5H22.32C22.37 20.32 22.4 20.12 22.4 19.92Z" fill="#7D4533"/>
<path d="M11.22 18.6599C11.92 18.6599 12.48 19.2199 12.48 19.9199C12.48 20.1299 12.42 20.3299 12.33 20.4999H10.1C10.01 20.3299 9.96002 20.1299 9.96002 19.9199C9.96002 19.2199 10.52 18.6599 11.22 18.6599ZM20.2 18.6599C19.5 18.6599 18.94 19.2199 18.94 19.9199C18.94 20.1299 18.99 20.3299 19.09 20.4999H21.32C21.41 20.3299 21.46 20.1299 21.46 19.9199C21.46 19.2199 20.9 18.6599 20.2 18.6599Z" fill="black"/>
<path d="M10.53 19.0599C10.53 19.1634 10.4889 19.2626 10.4158 19.3357C10.3426 19.4088 10.2434 19.4499 10.14 19.4499C10.0366 19.4499 9.93737 19.4088 9.86423 19.3357C9.79109 19.2626 9.75 19.1634 9.75 19.0599C9.75 18.9565 9.79109 18.8573 9.86423 18.7842C9.93737 18.711 10.0366 18.6699 10.14 18.6699C10.2434 18.6699 10.3426 18.711 10.4158 18.7842C10.4889 18.8573 10.53 18.9565 10.53 19.0599ZM19.9 19.0599C19.9 19.1634 19.8589 19.2626 19.7858 19.3357C19.7126 19.4088 19.6134 19.4499 19.51 19.4499C19.4066 19.4499 19.3074 19.4088 19.2342 19.3357C19.1611 19.2626 19.12 19.1634 19.12 19.0599C19.12 18.9565 19.1611 18.8573 19.2342 18.7842C19.3074 18.711 19.4066 18.6699 19.51 18.6699C19.6134 18.6699 19.7126 18.711 19.7858 18.7842C19.8589 18.8573 19.9 18.9565 19.9 19.0599Z" fill="white"/>
</svg>
