<svg width="34" height="45" viewBox="0 0 34 45" fill="none" xmlns="http://www.w3.org/2000/svg">
<path d="M12 16V2.75C12 1.7835 12.7835 1 13.75 1C14.7165 1 15.5 1.7835 15.5 2.75V16L24 24.5L18.5 42.5H9L3.5 24.5L12 16Z" fill="#E91078" stroke="black"/>
<mask id="mask0_86_54" style="mask-type:alpha" maskUnits="userSpaceOnUse" x="2" y="0" width="23" height="43">
<path d="M12 16V1H15.5V16L24 24.5L18.5 42.5H9L3.5 24.5L12 16Z" fill="#E91078" stroke="black"/>
</mask>
<g mask="url(#mask0_86_54)">
<g opacity="0.61">
<path d="M19.7173 17.5L27.3751 23.9311L19.6577 33.1204L11.5848 26.5L19.7173 17.5Z" fill="#FF3B99"/>
<path d="M1 16.5H19L18.3619 19L11.5848 26.5L1.5 26L1 16.5Z" fill="#FF8EC4"/>
<path d="M13.7496 31.5L22.8587 39.7253L18.1091 44.9852L8 41.5L9 36.76L13.7496 31.5Z" fill="#C24883"/>
<path d="M11.5848 26.5L22.8587 35.5L8.5 40.5L2 26L11.5848 26.5Z" fill="#933864"/>
</g>
<path d="M12.5106 1.5L15.0106 1.16968L15 5.5L15.5 16.5H12L12.0106 8.66968L12.5106 1.5Z" fill="#3C3C3C"/>
</g>
<path d="M20.4168 21.183L16.2308 6.41768C15.4782 6.16227 14.6458 6.3599 14.0883 6.92636L13.9535 7.06331L18.1395 21.8286L23.271 39.9289C23.6736 41.3489 25.1511 42.1737 26.5711 41.7711L32.0019 40.2315C32.6135 40.0581 32.9687 39.4218 32.7953 38.8102C32.6219 38.1986 31.9856 37.8433 31.374 38.0167L25.6494 39.6397L25.0215 37.4249L30.7461 35.8019C31.3577 35.6285 31.7129 34.9922 31.5395 34.3806C31.3661 33.769 30.7298 33.4137 30.1182 33.5871L24.3936 35.2101L23.7656 32.9953L29.4903 31.3723C30.1019 31.1989 30.4571 30.5626 30.2837 29.951C30.1103 29.3394 29.474 28.9841 28.8624 29.1575L23.1377 30.7805L22.5098 28.5657L28.2345 26.9427C28.8461 26.7693 29.2013 26.133 29.0279 25.5214C28.8545 24.9098 28.2182 24.5545 27.6066 24.7279L21.8819 26.3509L21.0447 23.3978L26.7694 21.7749C27.381 21.6015 27.7362 20.9651 27.5628 20.3535C27.3894 19.7419 26.7531 19.3867 26.1415 19.5601L20.4168 21.183Z" fill="#5D235A" stroke="#5D235A"/>
<mask id="mask1_86_54" style="mask-type:alpha" maskUnits="userSpaceOnUse" x="13" y="5" width="21" height="38">
<path d="M20.4168 21.183L16.2308 6.41768C15.4782 6.16227 14.6458 6.3599 14.0883 6.92636L13.9535 7.06331L18.1395 21.8286L23.271 39.9289C23.6736 41.3489 25.1511 42.1737 26.5711 41.7711L32.0019 40.2315C32.6135 40.0581 32.9687 39.4218 32.7953 38.8102C32.6219 38.1986 31.9856 37.8433 31.374 38.0167L25.6494 39.6397L25.0215 37.4249L30.7461 35.8019C31.3577 35.6285 31.7129 34.9922 31.5395 34.3806C31.3661 33.769 30.7298 33.4137 30.1182 33.5871L24.3936 35.2101L23.7656 32.9953L29.4903 31.3723C30.1019 31.1989 30.4571 30.5626 30.2837 29.951C30.1103 29.3394 29.474 28.9841 28.8624 29.1575L23.1377 30.7805L22.5098 28.5657L28.2345 26.9427C28.8461 26.7693 29.2013 26.133 29.0279 25.5214C28.8545 24.9098 28.2182 24.5545 27.6066 24.7279L21.8819 26.3509L21.0447 23.3978L26.7694 21.7749C27.381 21.6015 27.7362 20.9651 27.5628 20.3535C27.3894 19.7419 26.7531 19.3867 26.1415 19.5601L20.4168 21.183Z" fill="#5D235A" stroke="#5D235A"/>
</mask>
<g mask="url(#mask1_86_54)">
<path d="M16 12.5L23.5 13.5V23.5L25 46L16 23.5V12.5Z" fill="#A6157D"/>
<path d="M23 15.5L29 19L26 41.5L24.5 45L23 15.5Z" fill="#BE3979"/>
<path d="M26 23H31L35 41.5L25.5 42.5L26 23Z" fill="#C21FA8"/>
<path d="M13 4.5L18 7L21 34L13 16.5V4.5Z" fill="#6F436F"/>
</g>
<path d="M6.50002 14.0417L4.87502 18.3751L0.541687 20.0001L4.87502 21.6251L6.50002 25.9584L8.12502 21.6251L12.4584 20.0001L8.12502 18.3751L6.50002 14.0417Z" fill="#FFEA29"/>
<path d="M22.5 32.0417L20.875 36.3751L16.5417 38.0001L20.875 39.6251L22.5 43.9584L24.125 39.6251L28.4584 38.0001L24.125 36.3751L22.5 32.0417Z" fill="#FFEA29"/>
</svg>
