<svg width="35" height="25" viewBox="0 0 35 25" fill="none" xmlns="http://www.w3.org/2000/svg">
<rect x="0.5" y="0.5" width="34" height="21" rx="2.5" fill="#5F5F5F" stroke="black"/>
<mask id="mask0_87_169" style="mask-type:alpha" maskUnits="userSpaceOnUse" x="0" y="0" width="35" height="22">
<rect x="0.5" y="0.5" width="34" height="21" rx="2.5" fill="#5F5F5F" stroke="black"/>
</mask>
<g mask="url(#mask0_87_169)">
<path d="M-2 1.5C-2 0.39543 -1.10457 -0.5 1.86264e-08 -0.5H34.2985C36.3787 -0.5 36.7219 2.48156 34.6962 2.95422V2.95422C34.5658 2.98464 34.4324 3 34.2985 3H6.10434C5.16695 3 4.35532 3.65106 4.15197 4.56614L2.66996 11.2352C2.5607 11.7269 2.64098 12.2417 2.89478 12.6768L5.48778 17.1219C5.80966 17.6737 6.37578 18.0385 7.01127 18.1037L24.2992 19.8768C25.0083 19.9496 25.5813 20.4875 25.6984 21.1907V21.1907C25.8573 22.1438 25.1322 23.0155 24.166 23.0327L0.0357091 23.4636C-1.08265 23.4836 -2 22.5825 -2 21.464V1.5Z" fill="#373737"/>
<path d="M3 1L1 10.8942L2.5 17.1432L6 17.664L6.5 19.7469L26 21H32.5H33L33.5 20.4792L34 19.5V18.3963H30.5L24.5 17.664L16 15.7925L11 14.2303L7.5 11.6265L4.5 6.41904L3 1Z" fill="#4C4C4C"/>
<path d="M10.693 6.66667C11.2074 4.51654 13.1295 3 15.3403 3H30.5C32.1569 3 33.5 4.34315 33.5 6V6V7.86489C33.5 10.6785 31.1793 12.9381 28.3667 12.8631L14.574 12.4953C11.6134 12.4164 9.62405 9.42878 10.693 6.66667V6.66667V6.66667Z" fill="#818181"/>
</g>
<rect x="12.5" y="23.5" width="10" height="1" rx="0.5" fill="#D9D9D9" stroke="black"/>
<path d="M25 6.3934C25 5.62385 25.6238 5 26.3934 5H30.6066C31.3762 5 32 5.62385 32 6.3934V6.3934C32 7.24135 31.249 7.89271 30.4095 7.77279L28.7828 7.54041C28.5952 7.5136 28.4048 7.5136 28.2172 7.54041L26.5905 7.77279C25.751 7.89271 25 7.24135 25 6.3934V6.3934Z" fill="#D9D9D9" fill-opacity="0.5"/>
</svg>
