<svg width="36" height="36" viewBox="0 0 36 36" fill="none" xmlns="http://www.w3.org/2000/svg">
<path d="M31.5 22.5L18 21.375L4.49998 22.5L2.27248 32.5024C2.14873 33.3641 3.36936 33.1875 3.93748 33.1875H32.0625C32.6306 33.1875 33.8512 33.3641 33.7275 32.5024L31.5 22.5Z" fill="#D3D3D3"/>
<path d="M30.375 2.25H5.625C5.00625 2.25 4.5 2.75625 4.5 3.375V22.4887H31.5V3.375C31.5 2.75625 30.9938 2.25 30.375 2.25Z" fill="#7167A4"/>
<path d="M5.625 21.0825V3.65625C5.625 3.49875 5.74875 3.375 5.90625 3.375H30.0938C30.2513 3.375 30.375 3.49875 30.375 3.65625V21.0825C30.375 21.24 30.2513 21.3637 30.0938 21.3637H5.90625C5.74875 21.3637 5.625 21.24 5.625 21.0825Z" fill="#26C9FC"/>
<path fill-rule="evenodd" clip-rule="evenodd" d="M30.6788 23.94L31.4888 27.5963C31.5022 27.6585 31.5015 27.7229 31.4868 27.7848C31.4722 27.8468 31.4438 27.9046 31.404 27.9542C31.3641 28.0038 31.3136 28.0439 31.2563 28.0715C31.1989 28.0991 31.1362 28.1135 31.0725 28.1138H4.92751C4.65751 28.1138 4.45501 27.855 4.51126 27.5963L5.32126 23.94C5.36626 23.7488 5.53501 23.6138 5.73751 23.6138H30.2625C30.465 23.6138 30.6338 23.7488 30.6788 23.94ZM9.20926 27.5625H7.59714L7.73776 26.7188H9.31501L9.20926 27.5625ZM11.3895 27.5625H9.77626L9.88201 26.7188H11.4615L11.3895 27.5625ZM13.4573 27.5625H11.9543L12.024 26.7188H13.4933L13.4573 27.5625ZM15.5385 27.5625H14.0198L14.0558 26.7188H15.5745L15.5385 27.5625ZM17.7188 27.5625H16.1021L16.137 26.7188H17.7188V27.5625ZM19.8979 27.5625H18.2813V26.7188H19.863L19.8979 27.5625ZM21.9791 27.5625H20.4604L20.4266 26.7188H21.9443L21.9791 27.5625ZM24.0458 27.5625H22.5428L22.5068 26.7188H23.976L24.0458 27.5625ZM26.2249 27.5625H24.6105L24.5396 26.7188H26.1191L26.2249 27.5625ZM28.4029 27.5625H26.7908L26.6861 26.7188H28.2611L28.4029 27.5625ZM30.375 27.5625H28.9721L28.8315 26.7188H30.2344L30.375 27.5625ZM30.0004 25.3125L30.141 26.1563H28.7381L28.5975 25.3125H30.0004ZM29.8125 24.1875L29.9059 24.75H28.5041L28.4096 24.1875H29.8125ZM26.37 24.1875H27.8404L27.9338 24.75H26.4398L26.37 24.1875ZM24.3293 24.1875H25.803L25.8728 24.75H24.3765L24.3293 24.1875ZM22.4021 24.1875H23.7645L23.8118 24.75H22.4246L22.4021 24.1875ZM20.3209 24.1875H21.8396L21.8621 24.75H20.3434L20.3209 24.1875ZM18.2813 24.1875H19.7573L19.7809 24.75H18.2813V24.1875ZM16.2428 24.1875H17.7188V24.75H16.2191L16.2428 24.1875ZM14.1615 24.1875H15.6803L15.6555 24.75H14.1368L14.1615 24.1875ZM12.2355 24.1875H13.5979L13.5754 24.75H12.1883L12.2355 24.1875ZM10.197 24.1875H11.6708L11.6235 24.75H10.1273L10.197 24.1875ZM8.16076 24.1875H9.63001L9.55914 24.75H8.06626L8.16076 24.1875ZM6.18751 24.1875H7.59039L7.49589 24.75H6.09414L6.18751 24.1875ZM5.85901 26.1563L5.99964 25.3125H7.40251L7.26189 26.1563H5.85901ZM5.62501 27.5625L5.76564 26.7188H7.16851L7.02789 27.5625H5.62501ZM28.1678 26.1563L28.0271 25.3125H26.5095L26.6153 26.1563H28.1678ZM26.0483 26.1563L25.9436 25.3125H24.4226L24.4935 26.1563H26.0483ZM23.9288 26.1563L23.859 25.3125H22.4483L22.4843 26.1563H23.9288ZM21.9206 26.1563L21.8858 25.3125H20.367L20.403 26.1563H21.9206ZM19.8394 26.1563L19.8045 25.3125H18.2813V26.1563H19.8394ZM7.97289 25.3125L7.83226 26.1563H9.38476L9.49051 25.3125H7.97289ZM10.0564 25.3125L9.95176 26.1563H11.5065L11.5774 25.3125H10.0564ZM12.1421 25.3125L12.0713 26.1563H13.5158L13.5518 25.3125H12.1421ZM14.1143 25.3125L14.0794 26.1563H15.5981L15.6319 25.3125H14.1143ZM16.1955 25.3125L16.1606 26.1563H17.7188V25.3125H16.1955Z" fill="#9B9B9B"/>
<path d="M32.7263 32.625C32.9124 32.6248 33.095 32.5732 33.2538 32.4759C33.4125 32.3787 33.5414 32.2395 33.6262 32.0738L33.7275 32.5013L33.7309 32.5271C33.7597 32.6755 33.7554 32.8285 33.7183 32.975C33.6812 33.1216 33.6122 33.2581 33.5162 33.3749C33.4203 33.4917 33.2997 33.5859 33.1632 33.6507C33.0266 33.7156 32.8774 33.7495 32.7263 33.75H3.27375C2.71125 33.75 2.25 33.2888 2.25 32.7263C2.25 32.6475 2.26125 32.58 2.28375 32.5125L2.37375 32.085C2.5425 32.4 2.88 32.625 3.27375 32.625H32.7263ZM12.1725 31.4888H23.8275C24.0075 31.4888 24.1425 31.32 24.0975 31.14L23.67 29.4525C23.6542 29.3925 23.6193 29.3392 23.5706 29.3006C23.522 29.2621 23.4621 29.2404 23.4 29.2388H12.6C12.4762 29.2388 12.3638 29.3288 12.33 29.4525L11.9025 31.14C11.8575 31.32 11.9925 31.4888 12.1725 31.4888Z" fill="#9B9B9B"/>
<mask id="mask0_87_186" style="mask-type:alpha" maskUnits="userSpaceOnUse" x="2" y="2" width="32" height="32">
<path d="M31.5 22.5L18 21.375L4.49998 22.5L2.27248 32.5024C2.14873 33.3641 3.36936 33.1875 3.93748 33.1875H32.0625C32.6306 33.1875 33.8512 33.3641 33.7275 32.5024L31.5 22.5Z" fill="#D3D3D3"/>
<path d="M30.375 2.25H5.625C5.00625 2.25 4.5 2.75625 4.5 3.375V22.4887H31.5V3.375C31.5 2.75625 30.9938 2.25 30.375 2.25Z" fill="#7167A4"/>
<path d="M5.625 21.0825V3.65625C5.625 3.49875 5.74875 3.375 5.90625 3.375H30.0938C30.2513 3.375 30.375 3.49875 30.375 3.65625V21.0825C30.375 21.24 30.2513 21.3637 30.0938 21.3637H5.90625C5.74875 21.3637 5.625 21.24 5.625 21.0825Z" fill="#26C9FC"/>
<path fill-rule="evenodd" clip-rule="evenodd" d="M30.6788 23.94L31.4888 27.5963C31.5022 27.6585 31.5015 27.7229 31.4868 27.7848C31.4722 27.8468 31.4438 27.9046 31.404 27.9542C31.3641 28.0038 31.3136 28.0439 31.2563 28.0715C31.1989 28.0991 31.1362 28.1135 31.0725 28.1138H4.92751C4.65751 28.1138 4.45501 27.855 4.51126 27.5963L5.32126 23.94C5.36626 23.7488 5.53501 23.6138 5.73751 23.6138H30.2625C30.465 23.6138 30.6338 23.7488 30.6788 23.94ZM9.20926 27.5625H7.59714L7.73776 26.7188H9.31501L9.20926 27.5625ZM11.3895 27.5625H9.77626L9.88201 26.7188H11.4615L11.3895 27.5625ZM13.4573 27.5625H11.9543L12.024 26.7188H13.4933L13.4573 27.5625ZM15.5385 27.5625H14.0198L14.0558 26.7188H15.5745L15.5385 27.5625ZM17.7188 27.5625H16.1021L16.137 26.7188H17.7188V27.5625ZM19.8979 27.5625H18.2813V26.7188H19.863L19.8979 27.5625ZM21.9791 27.5625H20.4604L20.4266 26.7188H21.9443L21.9791 27.5625ZM24.0458 27.5625H22.5428L22.5068 26.7188H23.976L24.0458 27.5625ZM26.2249 27.5625H24.6105L24.5396 26.7188H26.1191L26.2249 27.5625ZM28.4029 27.5625H26.7908L26.6861 26.7188H28.2611L28.4029 27.5625ZM30.375 27.5625H28.9721L28.8315 26.7188H30.2344L30.375 27.5625ZM30.0004 25.3125L30.141 26.1563H28.7381L28.5975 25.3125H30.0004ZM29.8125 24.1875L29.9059 24.75H28.5041L28.4096 24.1875H29.8125ZM26.37 24.1875H27.8404L27.9338 24.75H26.4398L26.37 24.1875ZM24.3293 24.1875H25.803L25.8728 24.75H24.3765L24.3293 24.1875ZM22.4021 24.1875H23.7645L23.8118 24.75H22.4246L22.4021 24.1875ZM20.3209 24.1875H21.8396L21.8621 24.75H20.3434L20.3209 24.1875ZM18.2813 24.1875H19.7573L19.7809 24.75H18.2813V24.1875ZM16.2428 24.1875H17.7188V24.75H16.2191L16.2428 24.1875ZM14.1615 24.1875H15.6803L15.6555 24.75H14.1368L14.1615 24.1875ZM12.2355 24.1875H13.5979L13.5754 24.75H12.1883L12.2355 24.1875ZM10.197 24.1875H11.6708L11.6235 24.75H10.1273L10.197 24.1875ZM8.16076 24.1875H9.63001L9.55914 24.75H8.06626L8.16076 24.1875ZM6.18751 24.1875H7.59039L7.49589 24.75H6.09414L6.18751 24.1875ZM5.85901 26.1563L5.99964 25.3125H7.40251L7.26189 26.1563H5.85901ZM5.62501 27.5625L5.76564 26.7188H7.16851L7.02789 27.5625H5.62501ZM28.1678 26.1563L28.0271 25.3125H26.5095L26.6153 26.1563H28.1678ZM26.0483 26.1563L25.9436 25.3125H24.4226L24.4935 26.1563H26.0483ZM23.9288 26.1563L23.859 25.3125H22.4483L22.4843 26.1563H23.9288ZM21.9206 26.1563L21.8858 25.3125H20.367L20.403 26.1563H21.9206ZM19.8394 26.1563L19.8045 25.3125H18.2813V26.1563H19.8394ZM7.97289 25.3125L7.83226 26.1563H9.38476L9.49051 25.3125H7.97289ZM10.0564 25.3125L9.95176 26.1563H11.5065L11.5774 25.3125H10.0564ZM12.1421 25.3125L12.0713 26.1563H13.5158L13.5518 25.3125H12.1421ZM14.1143 25.3125L14.0794 26.1563H15.5981L15.6319 25.3125H14.1143ZM16.1955 25.3125L16.1606 26.1563H17.7188V25.3125H16.1955Z" fill="#9B9B9B"/>
<path d="M32.7263 32.625C32.9124 32.6248 33.095 32.5732 33.2538 32.4759C33.4125 32.3787 33.5414 32.2395 33.6262 32.0738L33.7275 32.5013L33.7309 32.5271C33.7597 32.6755 33.7554 32.8285 33.7183 32.975C33.6812 33.1216 33.6122 33.2581 33.5162 33.3749C33.4203 33.4917 33.2997 33.5859 33.1632 33.6507C33.0266 33.7156 32.8774 33.7495 32.7263 33.75H3.27375C2.71125 33.75 2.25 33.2888 2.25 32.7263C2.25 32.6475 2.26125 32.58 2.28375 32.5125L2.37375 32.085C2.5425 32.4 2.88 32.625 3.27375 32.625H32.7263ZM12.1725 31.4888H23.8275C24.0075 31.4888 24.1425 31.32 24.0975 31.14L23.67 29.4525C23.6542 29.3925 23.6193 29.3392 23.5706 29.3006C23.522 29.2621 23.4621 29.2404 23.4 29.2388H12.6C12.4762 29.2388 12.3638 29.3288 12.33 29.4525L11.9025 31.14C11.8575 31.32 11.9925 31.4888 12.1725 31.4888Z" fill="#9B9B9B"/>
</mask>
<g mask="url(#mask0_87_186)">
<path d="M5 4C5 3.44771 5.44772 3 6 3H30C30.5523 3 31 3.44772 31 4V21C31 21.5523 30.5523 22 30 22H6C5.44772 22 5 21.5523 5 21V4Z" fill="#322B2B"/>
</g>
</svg>
