<svg width="511" height="181" viewBox="0 0 511 181" fill="none" xmlns="http://www.w3.org/2000/svg">
<path d="M187.838 79.4545H199.065V109.477C199.065 112.947 198.24 115.97 196.588 118.545C194.937 121.106 192.634 123.091 189.679 124.5C186.724 125.894 183.293 126.591 179.384 126.591C175.429 126.591 171.974 125.894 169.02 124.5C166.065 123.091 163.77 121.106 162.134 118.545C160.497 115.97 159.679 112.947 159.679 109.477V79.4545H170.929V108.5C170.929 110.106 171.277 111.538 171.974 112.795C172.687 114.053 173.679 115.038 174.952 115.75C176.224 116.462 177.702 116.818 179.384 116.818C181.065 116.818 182.535 116.462 183.793 115.75C185.065 115.038 186.058 114.053 186.77 112.795C187.482 111.538 187.838 110.106 187.838 108.5V79.4545ZM217.366 79.4545V126H206.116V79.4545H217.366ZM266.679 96.3182H255.315C255.164 95.1515 254.853 94.0985 254.384 93.1591C253.914 92.2197 253.293 91.4167 252.52 90.75C251.747 90.0833 250.83 89.5758 249.77 89.2273C248.724 88.8636 247.565 88.6818 246.293 88.6818C244.035 88.6818 242.088 89.2348 240.452 90.3409C238.83 91.447 237.58 93.0455 236.702 95.1364C235.838 97.2273 235.406 99.7576 235.406 102.727C235.406 105.818 235.846 108.409 236.724 110.5C237.618 112.576 238.868 114.144 240.474 115.205C242.096 116.25 244.012 116.773 246.224 116.773C247.467 116.773 248.596 116.614 249.611 116.295C250.641 115.977 251.543 115.515 252.315 114.909C253.103 114.288 253.747 113.538 254.247 112.659C254.762 111.765 255.118 110.758 255.315 109.636L266.679 109.705C266.482 111.765 265.884 113.795 264.884 115.795C263.899 117.795 262.543 119.621 260.815 121.273C259.088 122.909 256.982 124.212 254.497 125.182C252.027 126.152 249.194 126.636 245.997 126.636C241.785 126.636 238.012 125.712 234.679 123.864C231.361 122 228.74 119.288 226.815 115.727C224.891 112.167 223.929 107.833 223.929 102.727C223.929 97.6061 224.906 93.2652 226.861 89.7045C228.815 86.1439 231.459 83.4394 234.793 81.5909C238.126 79.7424 241.861 78.8182 245.997 78.8182C248.815 78.8182 251.421 79.2121 253.815 80C256.209 80.7727 258.315 81.9091 260.134 83.4091C261.952 84.8939 263.429 86.7197 264.565 88.8864C265.702 91.053 266.406 93.5303 266.679 96.3182ZM273.116 126V79.4545H284.366V99.1364H284.98L300.366 79.4545H313.616L297.116 100.227L313.912 126H300.457L288.866 107.705L284.366 113.386V126H273.116ZM374.054 96.3182H362.69C362.539 95.1515 362.228 94.0985 361.759 93.1591C361.289 92.2197 360.668 91.4167 359.895 90.75C359.122 90.0833 358.205 89.5758 357.145 89.2273C356.099 88.8636 354.94 88.6818 353.668 88.6818C351.41 88.6818 349.463 89.2348 347.827 90.3409C346.205 91.447 344.955 93.0455 344.077 95.1364C343.213 97.2273 342.781 99.7576 342.781 102.727C342.781 105.818 343.221 108.409 344.099 110.5C344.993 112.576 346.243 114.144 347.849 115.205C349.471 116.25 351.387 116.773 353.599 116.773C354.842 116.773 355.971 116.614 356.986 116.295C358.016 115.977 358.918 115.515 359.69 114.909C360.478 114.288 361.122 113.538 361.622 112.659C362.137 111.765 362.493 110.758 362.69 109.636L374.054 109.705C373.857 111.765 373.259 113.795 372.259 115.795C371.274 117.795 369.918 119.621 368.19 121.273C366.463 122.909 364.357 124.212 361.872 125.182C359.402 126.152 356.569 126.636 353.372 126.636C349.16 126.636 345.387 125.712 342.054 123.864C338.736 122 336.115 119.288 334.19 115.727C332.266 112.167 331.304 107.833 331.304 102.727C331.304 97.6061 332.281 93.2652 334.236 89.7045C336.19 86.1439 338.834 83.4394 342.168 81.5909C345.501 79.7424 349.236 78.8182 353.372 78.8182C356.19 78.8182 358.796 79.2121 361.19 80C363.584 80.7727 365.69 81.9091 367.509 83.4091C369.327 84.8939 370.804 86.7197 371.94 88.8864C373.077 91.053 373.781 93.5303 374.054 96.3182ZM389.372 126H377.281L392.986 79.4545H407.963L423.668 126H411.577L400.645 91.1818H400.281L389.372 126ZM387.759 107.682H413.031V116.227H387.759V107.682ZM428.679 126V79.4545H447.906C451.391 79.4545 454.399 80.0833 456.929 81.3409C459.474 82.5833 461.437 84.3712 462.815 86.7045C464.194 89.0227 464.884 91.7727 464.884 94.9545C464.884 98.1818 464.179 100.924 462.77 103.182C461.361 105.424 459.361 107.136 456.77 108.318C454.179 109.485 451.111 110.068 447.565 110.068H435.406V101.205H445.474C447.171 101.205 448.588 100.985 449.724 100.545C450.876 100.091 451.747 99.4091 452.338 98.5C452.929 97.5758 453.224 96.3939 453.224 94.9545C453.224 93.5151 452.929 92.3258 452.338 91.3864C451.747 90.4318 450.876 89.7197 449.724 89.25C448.573 88.7652 447.156 88.5227 445.474 88.5227H439.929V126H428.679ZM454.884 104.727L466.474 126H454.202L442.838 104.727H454.884ZM469.531 88.5909V79.4545H508.872V88.5909H494.759V126H483.668V88.5909H469.531Z" fill="white"/>
<path d="M75.5 10.75C82.6514 10.75 89.5098 13.5815 94.5666 18.6215C99.6234 23.6615 102.464 30.4973 102.464 37.625V43H48.5357V37.625C48.5357 30.4973 51.3766 23.6615 56.4334 18.6215C61.4902 13.5815 68.3486 10.75 75.5 10.75ZM113.25 43V37.625C113.25 27.6462 109.273 18.0762 102.193 11.0201C95.1138 3.96405 85.5119 0 75.5 0C65.4881 0 55.8862 3.96405 48.8067 11.0201C41.7272 18.0762 37.75 27.6462 37.75 37.625V43C28.3415 43 20.2395 49.6377 18.3884 58.8624L0 150.5C0 156.202 2.2727 161.671 6.31813 165.703C10.3636 169.735 15.8503 172 21.5714 172H129.429C135.15 172 140.636 169.735 144.682 165.703C148.727 161.671 151 156.202 151 150.5L132.612 58.8623C130.761 49.6377 122.659 43 113.25 43Z" fill="white"/>
<path d="M75.5 10.75C82.6514 10.75 89.5098 13.5815 94.5666 18.6215C99.6234 23.6615 102.464 30.4973 102.464 37.625V43H48.5357V37.625C48.5357 30.4973 51.3766 23.6615 56.4334 18.6215C61.4902 13.5815 68.3486 10.75 75.5 10.75ZM113.25 43V37.625C113.25 27.6462 109.273 18.0762 102.193 11.0201C95.1138 3.96405 85.5119 0 75.5 0C65.4881 0 55.8862 3.96405 48.8067 11.0201C41.7272 18.0762 37.75 27.6462 37.75 37.625V43C28.3415 43 20.2395 49.6377 18.3884 58.8624L0 150.5C0 156.202 2.2727 161.671 6.31813 165.703C10.3636 169.735 15.8503 172 21.5714 172H129.429C135.15 172 140.636 169.735 144.682 165.703C148.727 161.671 151 156.202 151 150.5L132.612 58.8623C130.761 49.6377 122.659 43 113.25 43Z" stroke="url(#paint0_linear_82_45)"/>
<mask id="mask0_82_45" style="mask-type:alpha" maskUnits="userSpaceOnUse" x="30" y="54" width="86" height="103">
<path d="M67.2386 117.727H82.5114L91.5568 129.455L98.0114 137.091L113.511 157H97.1477L86.6023 143.636L82.1023 137.273L67.2386 117.727ZM115.739 102.455C115.739 112.485 113.86 121.076 110.102 128.227C106.375 135.348 101.284 140.803 94.8295 144.591C88.4053 148.379 81.1174 150.273 72.9659 150.273C64.8144 150.273 57.5114 148.379 51.0568 144.591C44.6326 140.773 39.5417 135.303 35.7841 128.182C32.0568 121.03 30.1932 112.455 30.1932 102.455C30.1932 92.4242 32.0568 83.8485 35.7841 76.7273C39.5417 69.5758 44.6326 64.1061 51.0568 60.3182C57.5114 56.5303 64.8144 54.6364 72.9659 54.6364C81.1174 54.6364 88.4053 56.5303 94.8295 60.3182C101.284 64.1061 106.375 69.5758 110.102 76.7273C113.86 83.8485 115.739 92.4242 115.739 102.455ZM98.7841 102.455C98.7841 95.3939 97.678 89.4394 95.4659 84.5909C93.2841 79.7121 90.2538 76.0303 86.375 73.5455C82.4962 71.0303 78.0265 69.7727 72.9659 69.7727C67.9053 69.7727 63.4356 71.0303 59.5568 73.5455C55.678 76.0303 52.6326 79.7121 50.4205 84.5909C48.2386 89.4394 47.1477 95.3939 47.1477 102.455C47.1477 109.515 48.2386 115.485 50.4205 120.364C52.6326 125.212 55.678 128.894 59.5568 131.409C63.4356 133.894 67.9053 135.136 72.9659 135.136C78.0265 135.136 82.4962 133.894 86.375 131.409C90.2538 128.894 93.2841 125.212 95.4659 120.364C97.678 115.485 98.7841 109.515 98.7841 102.455Z" fill="white"/>
</mask>
<g mask="url(#mask0_82_45)">
<path d="M-9.92232 148.591L-10 148.979V149.375C-10 156.436 -7.19487 163.209 -2.20172 168.202C2.79144 173.195 9.56361 176 16.625 176H129.75C136.811 176 143.584 173.195 148.577 168.202C153.57 163.209 156.375 156.436 156.375 149.375V148.979L156.297 148.591L137 52.1048C134.958 41.892 126.789 34.2105 116.781 32.574V30.5938C116.781 19.032 112.188 7.94373 104.013 -0.231687C95.8375 -8.4071 84.7493 -13 73.1875 -13C61.6257 -13 50.5375 -8.4071 42.3621 -0.231687C34.1867 7.94373 29.5938 19.032 29.5938 30.5938V32.574C19.5857 34.2105 11.4174 41.892 9.37483 52.1048L-9.92232 148.591ZM73.1875 6.3125C79.6273 6.3125 85.8033 8.8707 90.3569 13.4243C94.9106 17.9779 97.4688 24.154 97.4688 30.5938V32.25H48.9062V30.5938C48.9062 24.154 51.4644 17.9779 56.0181 13.4243C60.5717 8.8707 66.7477 6.3125 73.1875 6.3125Z" fill="url(#paint1_linear_82_45)" stroke="url(#paint2_linear_82_45)" stroke-width="8"/>
</g>
<path d="M103.517 144.235L125.5 172L110 172L93.2665 152.243L103.517 144.235Z" fill="#B1157D"/>
<rect x="73.3357" y="105.844" width="22.4884" height="12.1404" rx="6.07019" transform="rotate(52.3569 73.3357 105.844)" fill="#B8147C"/>
<defs>
<linearGradient id="paint0_linear_82_45" x1="75.5" y1="0" x2="75.5" y2="172" gradientUnits="userSpaceOnUse">
<stop stop-color="#FFB2E9"/>
<stop offset="1" stop-color="white"/>
</linearGradient>
<linearGradient id="paint1_linear_82_45" x1="73.1875" y1="-9" x2="73.1875" y2="172" gradientUnits="userSpaceOnUse">
<stop stop-color="#E91078"/>
<stop offset="1" stop-color="#A6157D"/>
</linearGradient>
<linearGradient id="paint2_linear_82_45" x1="73.1875" y1="-9" x2="73.1875" y2="172" gradientUnits="userSpaceOnUse">
<stop stop-color="#FFB2E9"/>
<stop offset="1" stop-color="white"/>
</linearGradient>
</defs>
</svg>
