<svg width="36" height="32" viewBox="0 0 36 32" fill="none" xmlns="http://www.w3.org/2000/svg">
<mask id="mask0_86_135" style="mask-type:alpha" maskUnits="userSpaceOnUse" x="1" y="7" width="28" height="21">
<path d="M27.2395 18.4104C26.4557 18.9133 25.4874 19.1357 24.5092 19.0377C23.5311 18.9396 22.6073 18.5275 21.9045 17.8756C21.9012 17.8735 21.8972 17.8726 21.8933 17.873L12.3371 23.1177L12.3352 23.1257C12.545 23.6648 12.6209 24.2343 12.5575 24.7922C12.4941 25.3501 12.2929 25.8819 11.9689 26.3483C11.6449 26.8147 11.2063 27.2037 10.6858 27.4864C10.1652 27.7691 9.57599 27.9382 8.96186 27.9813C8.34773 28.0243 7.72442 27.9402 7.13817 27.7351C6.55192 27.53 6.01777 27.2092 5.57535 26.7966C5.13292 26.3839 4.79358 25.8899 4.58248 25.3513C4.37139 24.8127 4.29396 24.2432 4.35594 23.6851C3.76841 23.4835 3.23215 23.1658 2.78692 22.7556C2.3417 22.3455 1.99893 21.8534 1.78406 21.3158C1.56919 20.7783 1.48772 20.2091 1.54569 19.6506C1.60367 19.092 1.7996 18.5583 2.11896 18.0891C2.43832 17.6199 2.87291 17.2273 3.39049 16.9403C3.90808 16.6533 4.49537 16.4793 5.10881 16.4313C5.72225 16.3833 6.3461 16.4624 6.93407 16.6629C7.52205 16.8633 8.05907 17.1799 8.5053 17.5891C8.50861 17.5912 8.5126 17.5922 8.5165 17.5918L18.0727 12.3471L18.0746 12.339C17.8649 11.8 17.7889 11.2304 17.8523 10.6725C17.9157 10.1147 18.1169 9.58279 18.4409 9.11639C18.765 8.64999 19.2035 8.26103 19.7241 7.97835C20.2446 7.69567 20.8338 7.52653 21.448 7.48347C22.0621 7.44042 22.6854 7.52455 23.2717 7.72964C23.8579 7.93472 24.3921 8.25549 24.8345 8.66816C25.2769 9.08082 25.6162 9.57479 25.8273 10.1134C26.0384 10.6521 26.1159 11.2215 26.0539 11.7796C26.7727 12.023 27.4134 12.4391 27.9058 12.9822C28.3982 13.5254 28.7234 14.1747 28.8458 14.8593C28.9682 15.5438 28.8831 16.2371 28.5998 16.8634C28.3165 17.4897 27.8459 18.0249 27.2395 18.4104Z" fill="black"/>
</mask>
<g mask="url(#mask0_86_135)">
<rect x="4.27014" y="-2.20679" width="44.5293" height="32.7301" transform="rotate(13.2857 4.27014 -2.20679)" fill="#D9D9D9"/>
<path d="M8.32259 11.2257L18.5867 13.6493L20.4188 13.5395L9.35401 19.6056L6.1389 20.4737L8.32259 11.2257Z" fill="#DAC0A8"/>
<path d="M8.32259 11.2257L18.5867 13.6493L20.4188 13.5395L9.35401 19.6056L6.1389 20.4737L8.32259 11.2257Z" fill="#DAC0A8"/>
<path d="M7.63442 15.8403L17.5456 13.5262L21.2425 13.7342L18.8579 27.7991L1.55301 29.6971L7.63442 15.8403Z" fill="#DAC0A8"/>
<path d="M7.63442 15.8403L17.5456 13.5262L21.2425 13.7342L18.8579 27.7991L1.55301 29.6971L7.63442 15.8403Z" fill="#FFE6D0"/>
<path d="M25.9512 10.5069L29.9428 11.4495L27.7591 20.6974L10.2642 28.4997L4.88946 28.3154L19.3633 15.4604L25.9512 10.5069Z" fill="#DAC0A8"/>
<path d="M25.9512 10.5069L29.9428 11.4495L27.7591 20.6974L10.2642 28.4997L4.88946 28.3154L19.3633 15.4604L25.9512 10.5069Z" fill="#AE9782"/>
<path d="M15.966 4.35206L25.9875 7.80325L26.6427 10.1277L20.5037 15.7296L10.8948 15.6303L13.7823 13.6L15.966 4.35206Z" fill="#DAC0A8"/>
<path d="M15.966 4.35206L25.9875 7.80325L26.6427 10.1277L20.5037 15.7296L10.8948 15.6303L13.7823 13.6L15.966 4.35206Z" fill="#CFB59C"/>
<path d="M0.38807 14.234L12.278 14.8719L20.5038 15.7294L7.971 20.3639L2.07468 24.9383L3.99165 27.0182L0.982834 29.5623L-1.79562 23.482L0.38807 14.234Z" fill="#DAC0A8"/>
<path d="M0.38807 14.234L12.278 14.8719L20.5038 15.7294L7.971 20.3639L2.07468 24.9383L3.99165 27.0182L0.982834 29.5623L-1.79562 23.482L0.38807 14.234Z" fill="#ECCEB2"/>
</g>
<path d="M24.4594 19.5352C25.5427 19.6438 26.6245 19.3987 27.5086 18.8318C28.1928 18.3966 28.7302 17.7883 29.0553 17.0695C29.3808 16.35 29.4779 15.554 29.338 14.7713C29.1981 13.9892 28.8281 13.2552 28.2762 12.6464C27.8092 12.1312 27.2258 11.7209 26.5744 11.4435C26.5795 10.9309 26.4839 10.4185 26.2929 9.93098C26.0532 9.31955 25.67 8.76378 25.1755 8.30252C24.6811 7.84134 24.0866 7.48501 23.4368 7.25768C22.7869 7.03035 22.0956 6.93684 21.413 6.98469C20.7304 7.03255 20.0714 7.22079 19.4855 7.53895C18.8994 7.85722 18.4008 8.29784 18.0303 8.83111C17.6596 9.36466 17.4284 9.97498 17.3555 10.6161C17.2988 11.1144 17.3393 11.6188 17.4721 12.1064L8.57279 16.9905C8.13399 16.6443 7.63313 16.3729 7.0954 16.1896C6.44368 15.9674 5.75169 15.8795 5.06979 15.9328C4.38784 15.9862 3.73076 16.1799 3.14804 16.503C2.5651 16.8262 2.07087 17.2711 1.70563 17.8077C1.3402 18.3446 1.11498 18.9571 1.04837 19.5989C0.981763 20.2406 1.0758 20.8911 1.31978 21.5014C1.56364 22.1115 1.95059 22.665 2.44815 23.1234C2.8529 23.4962 3.32336 23.7993 3.83542 24.0197C3.8301 24.5328 3.92569 25.0457 4.11696 25.5338C4.35658 26.1452 4.73978 26.701 5.2343 27.1622C5.72874 27.6234 6.32322 27.9797 6.97306 28.2071C7.6229 28.4344 8.31426 28.5279 8.99683 28.48C9.67943 28.4322 10.3385 28.2439 10.9244 27.9258C11.5105 27.6075 12.009 27.1669 12.3795 26.6336C12.7502 26.1001 12.9815 25.4898 13.0543 24.8487C13.111 24.3504 13.0705 23.8459 12.9378 23.3584L21.8354 18.4751C22.5786 19.0675 23.4964 19.4386 24.4594 19.5352Z" stroke="#4C4137"/>
<mask id="mask1_86_135" style="mask-type:alpha" maskUnits="userSpaceOnUse" x="18" y="1" width="17" height="30">
<path d="M28.2401 11.4598L33.6004 12.4343V18.7491L31.532 24.4371L31.4585 24.6392L31.5547 24.8316L32.5212 26.7646L32.1142 28.3926L26.2582 29.8567L20.8808 27.9013L20.4893 26.3352L21.863 24.9615L22.108 24.7165L21.9646 24.4011L19.3864 18.7288V12.4343L24.7466 11.4598L25.1572 11.3851V10.9678V2.25635L25.9135 1.5H27.2133L32.2503 2.87372L30.6851 5.2216H28.3295H27.8295V5.7216V10.9678V11.3851L28.2401 11.4598Z" fill="#D3FCF0" stroke="black"/>
</mask>
<g mask="url(#mask1_86_135)">
<path d="M20.0163 8.34473H33.5758V15.8206L32.5265 29.8542L26.2311 30.9035L19.411 28.2804L18.8864 24.5424L17.3125 12.0171L20.0163 8.34473Z" fill="#70857F"/>
<path d="M21.5095 12.5416L24.1326 6.77077L23.0794 1.55424L26.2151 -0.0493164L33.0092 1.01972L38.822 8.87937L32.5506 24.3805L33.5318 25.0731L32.5506 26.6767L30.9187 27.7457L29.3508 28.2803H27.783L25.6925 27.7457L24.6472 26.6767L24.1887 24.915L22.5588 21.9848L21.5095 17.7878V15.1647V12.5416Z" fill="#C3DFD7"/>
<path d="M27.8049 4.67214H30.9527L32.0019 1.52441L33.0511 2.04904L35.6743 10.4429V12.5414L34.625 18.3123L33.0511 20.4108L32.5265 13.0661L27.8049 11.4922V4.67214Z" fill="#DBFFF5"/>
<path d="M22.0341 11.4924L24.6572 10.9678L22.0341 13.5909L25.1818 15.1647L23.608 21.4602L26.2311 27.2311L28.3296 27.7557L33.0512 26.1818L33.5758 27.2311L32.5265 29.3295L31.4773 27.7557L28.3296 28.8049L25.1818 28.2803L23.608 25.1326L20.9849 18.8371L19.9356 13.5909L22.0341 11.4924Z" fill="#84B0A4"/>
<path d="M22.5587 5.72144H29.9034L29.3788 8.86917H22.0341L22.5587 5.72144Z" fill="#849EB0"/>
<path d="M25.7064 5.72144H33.5757L33.0162 9.39379L25.7064 8.86917V5.72144Z" fill="#9CC0DA"/>
<path d="M24.1326 1H33.5758L33.0512 5.7216H24.1326V1Z" fill="white"/>
</g>
<path d="M18.7969 11.5251L18.3864 11.5998V12.0171V18.8371V18.9454L18.4312 19.044L20.9109 24.4994L19.582 25.8283L19.3819 26.0285L19.4505 26.3031L19.9751 28.4016L20.0396 28.6594L20.2893 28.7502L26.0602 30.8487L26.2039 30.901L26.3523 30.8639L32.6478 29.29L32.9388 29.2173L33.0116 28.9262L33.5362 26.8277L33.5811 26.6483L33.4984 26.4829L32.5453 24.5767L34.5703 19.008L34.6004 18.9252V18.8371V12.0171V11.5998L34.1898 11.5251L28.8295 10.5505V6.2216H30.9527H31.2202L31.3687 5.99895L33.4672 2.85122L33.852 2.27401L33.1827 2.09148L27.4119 0.517618L27.3473 0.5H27.2803H25.7064H25.4993L25.3529 0.646447L24.3036 1.69569L24.1572 1.84214V2.04924V10.5505L18.7969 11.5251Z" stroke="black"/>
<path d="M18.7969 11.5251L18.3864 11.5998V12.0171V18.8371V18.9454L18.4312 19.044L20.9109 24.4994L19.582 25.8283L19.3819 26.0285L19.4505 26.3031L19.9751 28.4016L20.0396 28.6594L20.2893 28.7502L26.0602 30.8487L26.2039 30.901L26.3523 30.8639L32.6478 29.29L32.9388 29.2173L33.0116 28.9262L33.5362 26.8277L33.5811 26.6483L33.4984 26.4829L32.5453 24.5767L34.5703 19.008L34.6004 18.9252V18.8371V12.0171V11.5998L34.1898 11.5251L28.8295 10.5505V6.2216H30.9527H31.2202L31.3687 5.99895L33.4672 2.85122L33.852 2.27401L33.1827 2.09148L27.4119 0.517618L27.3473 0.5H27.2803H25.7064H25.4993L25.3529 0.646447L24.3036 1.69569L24.1572 1.84214V2.04924V10.5505L18.7969 11.5251Z" stroke="black" stroke-opacity="0.2"/>
<path d="M24.1326 5.72144H30.4281V6.77068H27.2804H24.1326V5.72144Z" fill="black"/>
<g clip-path="url(#clip0_86_135)">
<path d="M25.6387 14.5092C25.9998 14.4572 26.3824 14.852 26.4926 15.3967C26.6027 15.9384 26.4038 16.4219 26.0427 16.477C25.6846 16.5321 25.299 16.1373 25.1858 15.5926C25.0726 15.0509 25.2776 14.5674 25.6387 14.5092ZM27.8268 14.5092C28.191 14.5674 28.393 15.0509 28.2859 15.5926C28.1696 16.1373 27.7871 16.5321 27.4259 16.477C27.0618 16.4219 26.8628 15.9384 26.9761 15.3967C27.0863 14.852 27.4688 14.4572 27.8268 14.5092ZM24.0015 15.917C24.3503 15.767 24.8247 16.0394 25.0726 16.5137C25.3052 16.9973 25.2256 17.5053 24.8798 17.6552C24.534 17.8052 24.0627 17.5359 23.8209 17.0554C23.5792 16.5749 23.6648 16.0639 24.0015 15.917ZM29.51 15.917C29.8466 16.0639 29.9323 16.5749 29.6906 17.0554C29.4488 17.5359 28.9775 17.8052 28.6317 17.6552C28.2859 17.5053 28.2063 16.9973 28.4389 16.5137C28.6868 16.0394 29.1611 15.767 29.51 15.917ZM28.9989 19.216C29.0112 19.5036 28.7908 19.8219 28.5276 19.9413C27.9799 20.1922 27.3311 19.672 26.7221 19.672C26.1131 19.672 25.4582 20.2136 24.9196 19.9413C24.6135 19.7913 24.4024 19.3935 24.4422 19.063C24.4972 18.607 25.045 18.3622 25.3694 18.0286C25.8009 17.5971 26.107 16.7861 26.7221 16.7861C27.3341 16.7861 27.6585 17.5848 28.0717 18.0286C28.4114 18.4019 28.9775 18.7171 28.9989 19.216Z" fill="#506F66"/>
</g>
<defs>
<clipPath id="clip0_86_135">
<rect width="7.34471" height="7.34471" fill="white" transform="translate(23.0834 13.5911)"/>
</clipPath>
</defs>
</svg>
