<svg width="29" height="35" viewBox="0 0 29 35" fill="none" xmlns="http://www.w3.org/2000/svg">
<mask id="mask0_86_104" style="mask-type:alpha" maskUnits="userSpaceOnUse" x="0" y="-1" width="29" height="36">
<path d="M28.2227 31.416L27.9745 31.7883C27.0533 33.17 25.5025 34 23.8419 34H22.785C22.2688 34 21.7596 33.8798 21.2979 33.6489L21.2314 33.6157C21.0773 33.5387 20.918 33.4727 20.7546 33.4182L20.5896 33.3632C19.8696 33.1232 19.2007 32.7506 18.6177 32.2647L17.8573 31.6311C16.9579 30.8816 16.18 29.9972 15.5514 29.0094L13 25L11 21C10.3382 20.0072 9.51231 19.1342 8.55778 18.4183L5.43418 16.0756C4.48497 15.3637 3.66373 14.4956 3.00558 13.5084C2.34015 12.5102 1.85128 11.4051 1.56032 10.2413L1 8L0.615951 6.65583C0.334779 5.67173 1.19495 4.73899 2.19856 4.93971C2.39704 4.97941 2.60186 4.97453 2.79823 4.92544L4.5 4.5L11.4067 0.843497C12.3884 0.323812 13.5758 0.383892 14.5 1L14.7519 1.16795C15.5317 1.68777 16 2.56288 16 3.5V4.32942C16 5.08717 16.2579 5.82237 16.7313 6.41407L17.117 6.8962C17.6594 7.57422 18.5347 7.89306 19.3861 7.72278L20.0692 7.58617C20.341 7.5318 20.5725 7.35497 20.6965 7.10702C21.0276 6.44489 21.9724 6.44489 22.3035 7.10702L22.9059 8.31173C22.9683 8.43669 23.0139 8.56941 23.0413 8.70641L23.5 11L25.5823 20.9952C25.8599 22.3276 26.2842 23.6252 26.8474 24.8643L27.6724 26.6793C28.2178 27.8792 28.5 29.1819 28.5 30.5C28.5 30.826 28.4035 31.1448 28.2227 31.416Z" fill="#D9D9D9"/>
<path d="M4.5 4.5L11.4067 0.843497C12.3884 0.323812 13.5758 0.383892 14.5 1V1L14.7519 1.16795C15.5317 1.68777 16 2.56288 16 3.5V3.5V4.32942C16 5.08717 16.2579 5.82237 16.7313 6.41407L17.117 6.8962C17.6594 7.57422 18.5347 7.89306 19.3861 7.72278L20.0692 7.58617C20.341 7.5318 20.5725 7.35497 20.6965 7.10702V7.10702C21.0276 6.44489 21.9724 6.44489 22.3035 7.10702L22.9059 8.31173C22.9683 8.43669 23.0139 8.56941 23.0413 8.70641L23.5 11L25.5823 20.9952C25.8599 22.3276 26.2842 23.6252 26.8474 24.8643L27.6724 26.6793C28.2178 27.8792 28.5 29.1819 28.5 30.5V30.5V30.5C28.5 30.826 28.4035 31.1448 28.2227 31.416L27.9183 31.8725L27.9745 31.7883M4.5 4.5L8.5 10L20.1241 29.5906C21.7334 32.3029 25.1908 33.2708 27.9745 31.7883V31.7883M4.5 4.5L2.79823 4.92544C2.60186 4.97453 2.39704 4.97941 2.19856 4.93971V4.93971C1.19495 4.73899 0.334779 5.67173 0.615951 6.65583L1 8L1.56032 10.2413C1.85128 11.4051 2.34015 12.5102 3.00558 13.5084V13.5084C3.66373 14.4956 4.48497 15.3637 5.43418 16.0756L8.55778 18.4183C9.51231 19.1342 10.3382 20.0072 11 21V21L13 25L15.5514 29.0094C16.18 29.9972 16.9579 30.8816 17.8573 31.6311L18.6177 32.2647C19.2007 32.7506 19.8696 33.1232 20.5896 33.3632L20.7546 33.4182C20.918 33.4727 21.0773 33.5387 21.2314 33.6157L21.2979 33.6489C21.7596 33.8798 22.2688 34 22.785 34V34H23.8419C25.5025 34 27.0533 33.17 27.9745 31.7883V31.7883" stroke="black"/>
</mask>
<g mask="url(#mask0_86_104)">
<path d="M1.00001 3.5L4.5 4L7.5 10.5L14 18.5L18 23L21.5 30.5L24.5 32.5H27.5L27 34L24 34.5L20.5 35.5L1.00001 13.5L-1 3.5H1.00001Z" fill="white"/>
<path d="M12.223 0.425759C12.9474 -2.36865 15.6749 -4.1566 18.5263 -3.70637V-3.70637C21.1364 -3.29426 23.1047 -1.11618 23.2512 1.52211L23.2721 1.89721C23.4097 4.37544 22.0256 6.68806 19.7764 7.73769L16.9986 9.03401C16.3442 9.33936 15.6215 9.46845 14.9019 9.40849V9.40849C12.3408 9.19507 10.5895 6.72622 11.2344 4.23856L12.223 0.425759Z" fill="#505050"/>
<rect x="19" y="6" width="12" height="13" fill="#555555"/>
<path d="M10 3H22L23.5 14L12 16L8 11.5L10 3Z" fill="#666666"/>
<path d="M21 20H32V31L24.5 33L19 27L21 20Z" fill="#151515"/>
<path d="M12.5 16.0001L19 15L25 19L24.5 24.0001L19 26.5001L12.5 16.0001Z" fill="#363636"/>
<path d="M5 0H17L22.5 8.5L19 15L12.5 16L9.5 12.5L8 10.5L9 6L5 5.5V0Z" fill="#383838"/>
<path d="M25.3143 21L26.5 25.5L29.1714 24L32 28.25L30.2 31.5L26.8571 32L25.3143 30.25L24.5429 29.25L25.0571 27L23 26.75L25.3143 21Z" fill="#383838"/>
</g>
<path d="M4.5 4.5L11.4067 0.843497C12.3884 0.323812 13.5758 0.383892 14.5 1V1L14.7519 1.16795C15.5317 1.68777 16 2.56288 16 3.5V3.5V4.32942C16 5.08717 16.2579 5.82237 16.7313 6.41407L17.117 6.8962C17.6594 7.57422 18.5347 7.89306 19.3861 7.72278L20.0692 7.58617C20.341 7.5318 20.5725 7.35497 20.6965 7.10702V7.10702C21.0276 6.44489 21.9724 6.44489 22.3035 7.10702L22.9059 8.31173C22.9683 8.43669 23.0139 8.56941 23.0413 8.70641L23.5 11L25.5823 20.9952C25.8599 22.3276 26.2842 23.6252 26.8474 24.8643L27.6724 26.6793C28.2178 27.8792 28.5 29.1819 28.5 30.5V30.5V30.5C28.5 30.826 28.4035 31.1448 28.2227 31.416L27.9183 31.8725L27.9745 31.7883M4.5 4.5L5.44358 6.76458C6.47448 9.23876 7.89657 11.5311 9.65536 13.5537L15.9669 20.8119C16.6526 21.6004 17.2301 22.4769 17.6841 23.4181L20.5512 29.3614C21.8876 32.1315 25.2598 33.234 27.9745 31.7883V31.7883M4.5 4.5L2.79823 4.92544C2.60186 4.97453 2.39704 4.97941 2.19856 4.93971V4.93971C1.19495 4.73899 0.334779 5.67173 0.615951 6.65583L1 8L1.56032 10.2413C1.85128 11.4051 2.34015 12.5102 3.00558 13.5084V13.5084C3.66373 14.4956 4.48497 15.3637 5.43418 16.0756L8.55778 18.4183C9.51231 19.1342 10.3382 20.0072 11 21V21L13 25L15.5514 29.0094C16.18 29.9972 16.9579 30.8816 17.8573 31.6311L18.6177 32.2647C19.2007 32.7506 19.8696 33.1232 20.5896 33.3632L20.7546 33.4182C20.918 33.4727 21.0773 33.5387 21.2314 33.6157L21.2979 33.6489C21.7596 33.8798 22.2688 34 22.785 34V34H23.8419C25.5025 34 27.0533 33.17 27.9745 31.7883V31.7883" stroke="#6F6F6F"/>
</svg>
