<svg width="35" height="35" viewBox="0 0 35 35" fill="none" xmlns="http://www.w3.org/2000/svg">
<path d="M20.4166 10.2084C22.4302 10.2084 24.0625 8.57612 24.0625 6.56258C24.0625 4.54904 22.4302 2.91675 20.4166 2.91675C18.4031 2.91675 16.7708 4.54904 16.7708 6.56258C16.7708 8.57612 18.4031 10.2084 20.4166 10.2084Z" fill="#FF9800"/>
<path d="M21.1459 19.9062L14.4375 16.9167C13.7084 16.5521 13.3438 17.6458 12.9792 18.375C12.6146 19.1042 9.98961 23.625 10.2084 24.4271C10.4271 25.0833 11.0104 25.4479 11.5938 25.4479C11.7396 25.4479 11.8854 25.4479 12.0313 25.375L21 22.6042C21.5834 22.4583 22.0209 21.875 22.0209 21.2917C22.0209 20.7083 21.6563 20.125 21.1459 19.9062Z" fill="#00796B"/>
<path d="M19.5417 11.0833L17.9375 10.3541C16.9896 9.91659 15.8229 10.3541 15.3854 11.302L6.70834 29.9687C6.34375 30.6978 6.70834 31.5728 7.4375 31.9374C7.65625 32.0103 7.875 32.0833 8.09375 32.0833C8.67709 32.0833 9.1875 31.7916 9.40625 31.2812C9.40625 31.2812 16.4063 21.5833 16.9896 20.4166C17.5729 19.2499 20.5625 13.6353 20.5625 13.6353C20.9271 12.6874 20.5625 11.5208 19.5417 11.0833Z" fill="#009688"/>
<path d="M29.5312 11.4478C29.0208 10.8645 28.0729 10.7187 27.4896 11.2291L23.8437 14.2916L19.1771 11.7395C18.375 11.302 17.2812 11.4478 16.7708 12.3958C16.1875 13.3437 16.4792 14.5103 17.3542 14.8749L23.4062 17.3541C23.625 17.427 23.8437 17.4999 24.0625 17.4999C24.4271 17.4999 24.7187 17.3541 25.0104 17.1353L29.3854 13.4895C29.9687 12.9791 30.0417 12.1041 29.5312 11.4478ZM8.53125 16.8437L11.0104 13.1249L14.3646 13.5624L15.4583 11.302C15.75 10.6458 16.3333 10.2812 16.9896 10.2083H10.2813C9.77083 10.2083 9.33333 10.427 9.04167 10.8645L6.125 15.2395C5.6875 15.8958 5.83333 16.8437 6.5625 17.2812C6.70833 17.427 7 17.4999 7.29167 17.4999C7.72917 17.4999 8.23958 17.2812 8.53125 16.8437Z" fill="#FF9800"/>
</svg>
